<svg width="600" height="400" xmlns="http://www.w3.org/2000/svg">
  <defs>
    <linearGradient id="bg" x1="0%" y1="0%" x2="100%" y2="100%">
      <stop offset="0%" style="stop-color:#f8fafc;stop-opacity:1" />
      <stop offset="100%" style="stop-color:#e2e8f0;stop-opacity:1" />
    </linearGradient>
    <linearGradient id="aiGradient" x1="0%" y1="0%" x2="100%" y2="100%">
      <stop offset="0%" style="stop-color:#3b82f6;stop-opacity:1" />
      <stop offset="100%" style="stop-color:#1d4ed8;stop-opacity:1" />
    </linearGradient>
  </defs>

  <!-- Background -->
  <rect width="600" height="400" fill="url(#bg)"/>

  <!-- Title -->
  <text x="300" y="30" text-anchor="middle" font-family="Arial, sans-serif" font-size="18" font-weight="bold" fill="#1f2937">
    AI Image Analysis Feature - v1.1.0
  </text>

  <!-- Main Interface Mockup -->
  <rect x="50" y="50" width="500" height="300" fill="white" stroke="#e5e7eb" stroke-width="2" rx="12"/>

  <!-- Header -->
  <rect x="50" y="50" width="500" height="50" fill="#f9fafb" stroke="#e5e7eb" stroke-width="1" rx="12"/>
  <text x="80" y="80" font-family="Arial, sans-serif" font-size="16" font-weight="bold" fill="#1f2937">SEO Image Analyzer</text>

  <!-- Upload Area -->
  <rect x="80" y="120" width="200" height="150" fill="#f3f4f6" stroke="#d1d5db" stroke-width="2" stroke-dasharray="8,4" rx="8"/>
  <circle cx="180" cy="170" r="20" fill="#e5e7eb"/>
  <text x="180" y="177" text-anchor="middle" font-family="Arial, sans-serif" font-size="24" fill="#9ca3af">+</text>
  <text x="180" y="220" text-anchor="middle" font-family="Arial, sans-serif" font-size="12" fill="#6b7280">Drop images here</text>
  <text x="180" y="235" text-anchor="middle" font-family="Arial, sans-serif" font-size="10" fill="#9ca3af">or click to upload</text>

  <!-- Analysis Results -->
  <rect x="320" y="120" width="200" height="200" fill="#f0f9ff" stroke="#0ea5e9" stroke-width="1" rx="8"/>
  <text x="340" y="145" font-family="Arial, sans-serif" font-size="14" font-weight="bold" fill="#0ea5e9">Analysis Results</text>

  <!-- AI Processing Indicator -->
  <circle cx="420" cy="170" r="25" fill="url(#aiGradient)"/>
  <text x="420" y="177" text-anchor="middle" font-family="Arial, sans-serif" font-size="16" fill="white">🤖</text>

  <!-- Alt Text Generation -->
  <rect x="340" y="180" width="160" height="30" fill="#ecfdf5" stroke="#10b981" stroke-width="1" rx="4"/>
  <text x="350" y="198" font-family="Arial, sans-serif" font-size="11" fill="#047857">Alt: "Modern office workspace..."</text>

  <!-- SEO Score -->
  <rect x="340" y="220" width="160" height="30" fill="#fef3c7" stroke="#f59e0b" stroke-width="1" rx="4"/>
  <text x="350" y="238" font-family="Arial, sans-serif" font-size="11" fill="#92400e">SEO Score: 85/100</text>

  <!-- Feature Highlights -->
  <circle cx="100" cy="320" r="8" fill="#10b981"/>
  <text x="120" y="325" font-family="Arial, sans-serif" font-size="12" fill="#374151">Automatic Alt Text Generation</text>

  <circle cx="100" cy="345" r="8" fill="#10b981"/>
  <text x="120" y="350" font-family="Arial, sans-serif" font-size="12" fill="#374151">SEO Optimization Suggestions</text>

  <circle cx="100" cy="365" r="8" fill="#10b981"/>
  <text x="120" y="370" font-family="Arial, sans-serif" font-size="12" fill="#374151">Accessibility Compliance</text>

  <!-- AI Capabilities -->
  <circle cx="400" cy="320" r="8" fill="#3b82f6"/>
  <text x="420" y="325" font-family="Arial, sans-serif" font-size="12" fill="#374151">Vision AI Integration</text>

  <circle cx="400" cy="345" r="8" fill="#3b82f6"/>
  <text x="420" y="350" font-family="Arial, sans-serif" font-size="12" fill="#374151">Smart Image Recognition</text>

  <circle cx="400" cy="365" r="8" fill="#3b82f6"/>
  <text x="420" y="370" font-family="Arial, sans-serif" font-size="12" fill="#374151">Real-time Analysis</text>

  <!-- Version Badge -->
  <rect x="520" y="10" width="60" height="25" fill="#10b981" rx="12"/>
  <text x="550" y="26" text-anchor="middle" font-family="Arial, sans-serif" font-size="11" fill="white" font-weight="bold">v1.1.0</text>
</svg>
